<svg width="24" height="17" viewBox="0 0 24 17" fill="none" xmlns="http://www.w3.org/2000/svg">
<path d="M23.5 3.50552C23.3641 3.02105 23.0994 2.58244 22.734 2.23631C22.3583 1.87953 21.8978 1.62432 21.396 1.49477C19.518 1.00007 11.994 1.00007 11.994 1.00007C8.85734 0.964408 5.72144 1.12127 2.60401 1.46978C2.1022 1.60891 1.64257 1.86982 1.26601 2.22931C0.896007 2.58509 0.628007 3.02382 0.488007 3.50452C0.1517 5.31514 -0.0117011 7.1536 6.83166e-06 8.99511C-0.0119932 10.835 0.151007 12.6728 0.488007 14.4857C0.625007 14.9644 0.892007 15.4011 1.26301 15.7539C1.63401 16.1067 2.09601 16.3615 2.60401 16.4965C4.50701 16.9901 11.994 16.9901 11.994 16.9901C15.1347 17.0259 18.2746 16.869 21.396 16.5204C21.8978 16.3909 22.3583 16.1357 22.734 15.7789C23.104 15.4261 23.367 14.9874 23.499 14.5097C23.8441 12.6998 24.0119 10.8605 24 9.0181C24.026 7.16785 23.8584 5.31996 23.5 3.50452V3.50552ZM9.60201 12.417V5.57423L15.862 8.99611L9.60201 12.417Z"/>
</svg>
